<?xml version="1.0" encoding="utf-8"?>
<!-- Generator: Adobe Illustrator 24.2.3, SVG Export Plug-In . SVG Version: 6.00 Build 0)  -->
<svg version="1.1" id="Layer_1" xmlns="http://www.w3.org/2000/svg" xmlns:xlink="http://www.w3.org/1999/xlink" x="0px" y="0px"
	 viewBox="0 0 841.9 595.3" style="enable-background:new 0 0 841.9 595.3;" xml:space="preserve">
<style type="text/css">
	.st0{fill:#FFFFFF;stroke:#FFFFFF;stroke-width:3;}
</style>
<g>
	<path class="st0" d="M55.4,250c0,1.9-0.6,3.5-1.8,4.8c-1.2,1.2-2.8,1.8-4.7,1.8H25.5c-1.9,0-3.5-0.6-4.8-1.8
		c-1.2-1.2-1.9-2.8-1.9-4.8v-23.6h8.3v22.9h20.1v-22.1l-25.7-31c-1.8-2.1-2.7-4.5-2.7-7.1v-18.8c0-1.9,0.6-3.5,1.9-4.8
		c1.2-1.2,2.8-1.8,4.8-1.8h23.4c1.9,0,3.5,0.6,4.7,1.8c1.2,1.2,1.8,2.8,1.8,4.8v21.6h-8.3v-20.9H27.1v19.6l25.8,31
		c1.7,2.1,2.6,4.4,2.6,6.9V250z"/>
	<path class="st0" d="M127.2,256.5h-7.9v-50.7l-17.2,0.5v50.2h-7.8v-50.7L77,206.3v50.2h-7.9v-57.8H77v1.6c3.1-0.4,6.2-0.8,9.3-1.2
		c3.8-0.5,6.9-0.7,9.3-0.7c2.4,0,4.2,0.7,5.3,2.2c3.3-0.4,6.6-0.9,9.9-1.4c4.3-0.6,7.6-0.8,9.8-0.8c4.4,0,6.5,2.2,6.5,6.5V256.5z"/>
	<path class="st0" d="M172.6,256.5h-7.8v-1.6c-3.1,0.4-6.3,0.9-9.4,1.2c-3.9,0.5-7,0.7-9.3,0.7c-4.3,0-6.5-2.1-6.5-6.4v-21.1
		c0-4.4,2.2-6.7,6.7-6.7H165v-17.4h-17v9.9h-7.7v-9.7c0-4.5,2.2-6.7,6.7-6.7h19c4.4,0,6.7,2.2,6.7,6.7V256.5z M165,249.4v-20.4
		h-17.6v20.8L165,249.4z"/>
	<path class="st0" d="M193.8,256.5h-7.8v-92.9h7.8V256.5z"/>
	<path class="st0" d="M215.5,256.5h-7.8v-92.9h7.8V256.5z"/>
	<path class="st0" d="M317.1,238c0,5.3-1.7,9.7-5.2,13.2c-3.5,3.5-7.8,5.3-13.1,5.3h-31.2V118h11.8v54.8c4.7-0.6,9.3-1.2,14-1.8
		c5.9-0.8,10.5-1.2,13.9-1.2c6.5,0,9.8,3.2,9.8,9.6V238z M305.3,236.3V181l-25.9,0.7v64.5h16.3C302.1,246.2,305.3,242.9,305.3,236.3
		z"/>
	<path class="st0" d="M385.6,256.5H374v-2.4c-4.7,0.6-9.4,1.3-14.1,1.9c-5.7,0.7-10.4,1.1-14.1,1.1c-6.4,0-9.6-3.2-9.6-9.6v-77.1
		h11.6V246l26.1-0.7v-74.9h11.6V256.5z"/>
	<path class="st0" d="M451.2,246.5c0,6.7-3.3,10-10,10h-27c-6.7,0-10-3.3-10-10V227h11.6v19.4h23.8v-17.2L408.8,204
		c-3-2.4-4.4-5.4-4.4-9.2v-14.3c0-6.7,3.3-10,10-10H441c6.7,0,10,3.3,10,10v17.2h-11.4v-17h-23.8v15l31.1,25.2
		c2.9,2.3,4.3,5.4,4.3,9.4V246.5z"/>
	<path class="st0" d="M516.2,246.5c0,6.7-3.3,10-10,10h-27c-6.7,0-10-3.3-10-10V227h11.6v19.4h23.8v-17.2L473.8,204
		c-3-2.4-4.4-5.4-4.4-9.2v-14.3c0-6.7,3.3-10,10-10H506c6.7,0,10,3.3,10,10v17.2h-11.4v-17h-23.8v15l31.1,25.2
		c2.9,2.3,4.3,5.4,4.3,9.4V246.5z"/>
	<path class="st0" d="M547.4,151.6h-11.9v-14.9h11.9V151.6z M547.2,256.5h-11.6v-86.1h11.6V256.5z"/>
	<path class="st0" d="M616.7,256.5h-11.8V181l-25.9,0.7v74.9h-11.8v-86.1H579v2.4c4.6-0.6,9.2-1.2,13.9-1.9c5.7-0.7,10.3-1.1,14-1.1
		c6.5,0,9.8,3.2,9.8,9.6V256.5z"/>
	<path class="st0" d="M683.8,246.5c0,6.7-3.3,10-9.9,10h-28.3c-6.6,0-9.9-3.3-9.9-10v-66.1c0-6.7,3.3-10,9.9-10h28.3
		c6.6,0,9.9,3.3,9.9,10v31l-4,4.2h-32.7v31.2h25.3V231h11.4V246.5z M672.4,206.2v-25.9h-25.3v25.9H672.4z"/>
	<path class="st0" d="M749.7,246.5c0,6.7-3.3,10-10,10h-27c-6.7,0-10-3.3-10-10V227h11.6v19.4h23.8v-17.2L707.3,204
		c-3-2.4-4.4-5.4-4.4-9.2v-14.3c0-6.7,3.3-10,10-10h26.6c6.7,0,10,3.3,10,10v17.2h-11.4v-17h-23.8v15l31.1,25.2
		c2.9,2.3,4.3,5.4,4.3,9.4V246.5z"/>
	<path class="st0" d="M814.7,246.5c0,6.7-3.3,10-10,10h-27c-6.7,0-10-3.3-10-10V227h11.6v19.4h23.8v-17.2L772.3,204
		c-3-2.4-4.4-5.4-4.4-9.2v-14.3c0-6.7,3.3-10,10-10h26.6c6.7,0,10,3.3,10,10v17.2h-11.4v-17h-23.8v15l31.1,25.2
		c2.9,2.3,4.3,5.4,4.3,9.4V246.5z"/>
	<path class="st0" d="M66.9,362.6l-45,33.3v-12.3l32.7-24.3L22,335v-12.3h0.7l44.3,33.5V362.6z"/>
	<path class="st0" d="M128.7,362.6l-45,33.3v-12.3l32.7-24.3L83.7,335v-12.3h0.7l44.3,33.5V362.6z"/>
	<path class="st0" d="M190.5,362.6l-45,33.3v-12.3l32.7-24.3L145.5,335v-12.3h0.7l44.3,33.5V362.6z"/>
	<path class="st0" d="M252.2,362.6l-45,33.3v-12.3l32.7-24.3L207.3,335v-12.3h0.7l44.3,33.5V362.6z"/>
	<path class="st0" d="M325.4,407.5c0,2.9-0.9,5.3-2.7,7.1c-1.8,1.8-4.2,2.7-7.1,2.7h-45.7V278.8h45.3c2.9,0,5.3,0.9,7.1,2.7
		c1.8,1.8,2.7,4.2,2.7,7.1v41.2c0,3.7-1.7,6.7-5,9.2c-3.2,1.9-6.5,3.9-9.7,5.8l10.4,6.7c3.1,1.9,4.6,4.8,4.6,8.9V407.5z
		 M312.7,331.4v-41.7h-30.4v50h18.1L312.7,331.4z M313,406.4v-47.9l-12.5-8.1h-18.3v56H313z"/>
	<path class="st0" d="M358,312.3h-11.9v-14.9H358V312.3z M357.8,417.3h-11.6v-86.1h11.6V417.3z"/>
	<path class="st0" d="M426.8,440c0,6.7-3.3,10-10,10h-28c-6.8,0-10.2-4.2-10.2-12.7c0-1,0-2.5,0.1-4.5c0.1-2,0.1-3.4,0.1-4.3h11.6
		V440h24.6v-22.7h-19.4c-5.3,0-9.6-1.8-13.1-5.3c-3.5-3.5-5.2-7.9-5.2-13.2v-50.4c0-5.1,1.5-9.3,4.6-12.7c3.1-3.4,7.1-5.1,12.1-5.1
		c1.4,0,8.3,1,21,2.9v-2.4h11.7V440z M415.1,406.9v-65.1c-9.3-0.6-14.8-0.9-16.3-0.9c-6.5,0-9.7,3.3-9.7,9.9V397
		c0,6.6,3.2,9.9,9.7,9.9H415.1z"/>
	<path class="st0" d="M510.8,410.6c0,4.5-2.2,6.7-6.7,6.7h-19c-4.4,0-6.7-2.2-6.7-6.7v-44.4c0-4.5,2.2-6.7,6.7-6.7h19
		c4.4,0,6.7,2.2,6.7,6.7V387l-2.7,2.8h-22v20.9h17v-10.6h7.7V410.6z M503.1,383.5v-17.4h-17v17.4H503.1z"/>
	<path class="st0" d="M545.7,331.3h-11.2v28.2h9.9v6.9h-9.9v50.8h-7.8v-50.8H520v-6.9h6.7v-28.4c0-4.5,2.2-6.7,6.7-6.7h12.3V331.3z"
		/>
	<path class="st0" d="M574.6,331.3h-11.2v28.2h9.9v6.9h-9.9v50.8h-7.8v-50.8H549v-6.9h6.7v-28.4c0-4.5,2.2-6.7,6.7-6.7h12.3V331.3z"
		/>
	<path class="st0" d="M614,410.6c0,4.5-2.2,6.7-6.7,6.7h-19c-4.4,0-6.7-2.2-6.7-6.7v-44.4c0-4.5,2.2-6.7,6.7-6.7h19
		c4.4,0,6.7,2.2,6.7,6.7V387l-2.7,2.8h-22v20.9h17v-10.6h7.7V410.6z M606.3,383.5v-17.4h-17v17.4H606.3z"/>
	<path class="st0" d="M659.1,410.6c0,4.5-2.2,6.7-6.7,6.7h-18.8c-4.4,0-6.7-2.2-6.7-6.7v-44.4c0-4.5,2.2-6.7,6.7-6.7h18.8
		c4.4,0,6.7,2.2,6.7,6.7v11.5h-7.8v-11.3h-16.4v43.9h16.4v-12.9h7.8V410.6z"/>
	<path class="st0" d="M692.7,417.3h-11.2c-4.4,0-6.7-2.2-6.7-6.7v-44.1h-6.9v-6.9h6.9v-18h7.8v18h10.1v6.9h-10.1v43.9h10.1V417.3z"
		/>
	<path class="st0" d="M711.2,346.9h-8v-10h8V346.9z M711.1,417.3h-7.8v-57.8h7.8V417.3z"/>
	<path class="st0" d="M757,359.5l-14.3,57.9h-7.2l-14.4-57.9h8.1l9.9,45.5l10-45.5H757z"/>
	<path class="st0" d="M799,410.6c0,4.5-2.2,6.7-6.7,6.7h-19c-4.4,0-6.7-2.2-6.7-6.7v-44.4c0-4.5,2.2-6.7,6.7-6.7h19
		c4.4,0,6.7,2.2,6.7,6.7V387l-2.7,2.8h-22v20.9h17v-10.6h7.7V410.6z M791.4,383.5v-17.4h-17v17.4H791.4z"/>
</g>
</svg>
